<svg version="1.1" id="Layer_1" xmlns="http://www.w3.org/2000/svg" xmlns:xlink="http://www.w3.org/1999/xlink" x="0px" y="0px"
	 width="100%" viewBox="0 0 1024 1024" enable-background="new 0 0 1024 1024" xml:space="preserve">
<path fill="#008000" opacity="1.000000" stroke="none" 
	d="
M265.719543,634.276001 
	C258.096802,626.092957 254.633713,616.799805 254.644577,605.902771 
	C254.736206,513.913879 254.697479,421.924805 254.701630,329.935791 
	C254.702774,304.422760 272.539368,286.518036 298.130981,286.720825 
	C309.933655,286.814362 321.785217,285.630035 333.541168,287.498566 
	C354.617676,290.848541 368.689270,305.595856 371.338806,326.805420 
	C372.023438,332.285858 372.012085,337.766083 372.018616,343.259216 
	C372.055634,374.421753 372.080231,405.584351 372.135071,436.746857 
	C372.147186,443.645599 372.195496,443.664429 378.915833,443.665039 
	C429.743073,443.669708 480.570465,443.601807 531.397522,443.701447 
	C548.620422,443.735229 559.724548,461.591919 552.256897,477.069885 
	C548.701355,484.439240 542.682434,488.939819 534.577026,490.281494 
	C531.311279,490.822021 527.944336,490.924713 524.623047,490.929810 
	C476.129120,491.004059 427.635101,491.027313 379.141083,491.064728 
	C372.019928,491.070221 372.065033,491.074951 372.071655,498.370148 
	C372.091278,520.033752 372.215118,541.699036 371.962585,563.359802 
	C371.903015,568.470825 373.537445,569.804382 378.536591,569.786682 
	C427.363495,569.613586 476.192444,569.886292 525.018127,569.588379 
	C545.319153,569.464478 560.890808,585.433716 561.119751,605.170227 
	C561.478882,636.140808 562.181396,667.108398 562.600159,698.076416 
	C562.885986,719.214661 562.518738,740.387878 563.529236,761.493896 
	C564.470276,781.148865 563.507935,800.807556 564.491028,820.416260 
	C565.342651,837.402527 565.209778,854.371643 565.313904,871.349182 
	C565.424805,889.426453 551.165649,904.082214 533.459961,904.396057 
	C515.041748,904.722595 500.365021,890.973450 499.693420,872.705872 
	C498.787903,848.075439 498.392181,823.421326 497.415588,798.803955 
	C495.944702,761.727173 494.845459,724.641113 493.429077,687.566589 
	C492.965851,675.440369 493.245392,663.280640 492.171295,651.152222 
	C491.739929,646.281494 490.058594,645.187866 485.500305,645.197327 
	C421.674866,645.329590 357.848877,645.210266 294.023560,645.369629 
	C283.076813,645.396973 273.841309,641.973694 265.719543,634.276001 
z"/>
<path fill="#008000" opacity="1.000000" stroke="none" 
	d="
M439.664551,859.124329 
	C432.308105,819.668640 424.995056,780.637634 417.662781,741.610107 
	C414.993042,727.399780 412.220612,713.208496 409.623199,698.985046 
	C408.974701,695.433655 407.367554,694.031799 403.606812,694.037231 
	C352.615906,694.110840 301.624786,694.070618 250.633850,693.972351 
	C246.692368,693.964783 244.889450,695.060242 244.043472,699.372620 
	C235.027985,745.327515 225.699707,791.221008 216.533936,837.146606 
	C212.989120,854.908081 209.660706,872.712708 206.191559,890.489441 
	C204.394211,899.699463 198.619293,904.624023 190.084854,904.356201 
	C182.737610,904.125549 177.210938,898.987244 176.091125,891.231262 
	C175.630096,888.038025 176.594925,884.948853 177.193573,881.867859 
	C187.013199,831.329468 196.873962,780.798950 206.739426,730.269409 
	C208.808578,719.671509 210.858978,709.068726 213.089752,698.504456 
	C213.592560,696.123291 213.953400,694.136292 211.115341,693.290222 
	C199.537231,689.838379 196.712814,680.807190 195.799850,670.155334 
	C193.288025,640.849426 190.488312,611.568298 187.875259,582.270935 
	C185.735565,558.280762 183.769226,534.275024 181.600739,510.287506 
	C179.131668,482.974915 176.458603,455.680786 173.999222,428.367340 
	C172.419510,410.823181 171.114120,393.254486 169.579819,375.706055 
	C169.132187,370.586426 167.910049,365.523590 169.301346,360.361237 
	C171.894852,350.738190 179.092438,345.719421 189.039047,346.694092 
	C197.376526,347.511078 203.480392,354.093414 204.286392,363.218689 
	C206.667938,390.181671 208.989960,417.149994 211.404709,444.109985 
	C214.027252,473.389984 216.510773,502.684906 219.465302,531.931885 
	C221.703018,554.083130 223.594299,576.257751 225.419449,598.443420 
	C226.891037,616.331238 228.760437,634.186157 230.260056,652.071899 
	C230.536407,655.367859 232.182739,655.772400 234.835602,655.760803 
	C247.499847,655.705383 260.164459,655.742310 272.828949,655.741516 
	C328.152802,655.737915 383.476685,655.724854 438.800537,655.734985 
	C449.027527,655.736877 456.466095,660.566589 459.110901,668.800171 
	C462.868408,680.497986 456.641113,691.136536 444.543579,693.671936 
	C443.244812,693.944214 441.934387,694.161011 440.114594,694.499207 
	C440.241394,701.995972 442.429871,709.154785 443.765411,716.400513 
	C451.530243,758.526855 459.456726,800.623413 467.348724,842.726257 
	C469.887299,856.269226 472.533081,869.792297 475.020233,883.344604 
	C475.524353,886.091553 476.021027,888.852356 475.495209,891.748718 
	C474.288239,898.397217 469.679810,903.419800 463.647919,904.268982 
	C456.333923,905.298584 450.210876,902.154297 447.318756,895.569702 
	C444.408813,888.944580 444.275146,881.653015 442.709137,874.700378 
	C441.578156,869.679199 440.694336,864.602356 439.664551,859.124329 
z"/>
<path fill="#008000" opacity="1.000000" stroke="none" 
	d="
M803.764404,888.506958 
	C803.704956,773.410095 803.693237,658.762146 803.656799,544.114258 
	C803.653687,534.314575 804.752502,535.340881 794.801392,535.339478 
	C690.818176,535.325012 586.835022,535.331970 482.851807,535.340515 
	C475.564514,535.341125 469.291138,533.256348 465.662811,526.428589 
	C462.012146,519.558838 462.364044,512.610962 466.438538,506.027161 
	C470.096649,500.116119 475.738464,497.813049 482.546936,497.817017 
	C538.704407,497.849640 594.861938,497.854614 651.019409,497.862213 
	C733.505920,497.873383 815.992493,497.872955 898.479004,497.894196 
	C914.238342,497.898285 923.463623,511.188751 917.295959,524.999268 
	C913.843018,532.730957 907.181946,535.232971 899.385254,535.282471 
	C881.055603,535.398987 862.722473,535.476807 844.395935,535.211365 
	C839.554138,535.141174 838.229858,536.586243 838.235352,541.398315 
	C838.365479,655.379700 838.335632,769.361328 838.369446,883.342896 
	C838.370483,886.875427 838.122925,890.286011 836.759094,893.604675 
	C833.729980,900.975281 828.890564,904.340576 821.044678,904.349304 
	C813.066467,904.358276 808.337219,901.176819 805.340088,893.697937 
	C804.723450,892.159363 804.311768,890.538696 803.764404,888.506958 
z"/>
<path fill="#008000" opacity="1.000000" stroke="none" 
	d="
M348.902039,108.759521 
	C378.917267,115.986862 399.458588,133.643814 409.730469,162.327957 
	C426.198273,208.314102 397.738464,262.099609 345.984833,270.037170 
	C301.480927,276.862762 261.516418,247.279800 253.614700,201.584930 
	C246.305984,159.319199 276.686188,114.430809 322.617828,108.016998 
	C331.111847,106.830910 339.900848,106.853592 348.902039,108.759521 
z"/>
<path fill="#008000" opacity="1.000000" stroke="none" 
	d="
M813.156799,258.827087 
	C812.187073,266.362457 811.298584,273.449493 810.362732,280.530273 
	C809.968933,283.510071 810.744873,285.284210 813.923584,286.557526 
	C829.091003,292.633179 836.339294,303.719940 836.344360,320.241150 
	C836.358521,366.224548 836.348206,412.207916 836.352051,458.191315 
	C836.352539,464.737518 836.364136,464.740692 842.963562,464.758667 
	C850.127441,464.778168 857.301331,464.556335 864.452820,464.862305 
	C874.846313,465.306976 881.162354,474.716888 876.903442,483.122742 
	C874.484192,487.897430 870.296936,490.159546 865.108459,490.170227 
	C830.621155,490.241028 796.133423,490.272919 761.646362,490.159271 
	C754.013855,490.134125 748.719971,484.770081 748.680359,477.788483 
	C748.639526,470.572601 753.999634,464.957001 761.724426,464.848724 
	C776.382935,464.643219 791.047791,464.658478 805.706543,464.850555 
	C810.079346,464.907867 811.807190,463.841248 811.764648,459.015472 
	C811.558960,435.693878 811.332886,412.358490 811.916687,389.048096 
	C812.429382,368.578918 812.724426,348.117310 812.619629,327.647552 
	C812.601868,324.173004 812.139465,320.681671 811.631470,317.235077 
	C811.263306,314.737854 810.013855,312.630829 807.062317,310.766235 
	C806.109558,317.842010 805.156433,324.324860 804.375977,330.828430 
	C802.060852,350.120239 799.833008,369.422485 797.528198,388.715546 
	C796.859558,394.312805 796.452759,399.986298 795.194702,405.456665 
	C793.686768,412.013489 789.720825,416.657043 782.807190,418.462067 
	C771.859924,421.320190 761.620544,412.484009 762.988464,401.250916 
	C766.621094,371.421448 770.165588,341.581116 773.836975,311.756439 
	C778.016235,277.805725 782.410217,243.880966 786.464600,209.915543 
	C787.783081,198.869904 788.573669,187.739777 790.692627,176.822922 
	C792.645508,166.761795 800.532654,161.842987 810.245422,163.828049 
	C818.366821,165.487869 822.975891,173.830795 821.742493,183.184860 
	C819.682495,198.807617 818.098816,214.493362 816.335205,230.154922 
	C815.276184,239.559723 814.256348,248.968948 813.156799,258.827087 
z"/>
</svg>
